HIERARCHY
ROOT joint_0
{
	OFFSET 0.000000 0.000000 0.000000
	CHANNELS 6 Xposition Yposition Zposition Zrotation Yrotation Xrotation 
	JOINT joint_1
	{
		OFFSET 0.587158 0.057678 95.682007
		CHANNELS 3 Zrotation Yrotation Xrotation
		JOINT joint_2
		{
			OFFSET -7.116699 -0.219910 87.157959
			CHANNELS 3 Zrotation Yrotation Xrotation
			JOINT joint_3
			{
				OFFSET -5.892822 -0.290222 87.151001
				CHANNELS 3 Zrotation Yrotation Xrotation
				JOINT joint_4
				{
					OFFSET 5.544678 -0.099609 123.768066
					CHANNELS 3 Zrotation Yrotation Xrotation
					JOINT joint_5
					{
						OFFSET 41.981201 4.519775 84.257935
						CHANNELS 3 Zrotation Yrotation Xrotation
						End Site
						{
							OFFSET 0.000000 0.000000 0.000000
						}
					}
				}
				JOINT joint_6
				{
					OFFSET 3.940918 -26.976501 69.308105
					CHANNELS 3 Zrotation Yrotation Xrotation
					JOINT joint_7
					{
						OFFSET 4.776123 -152.592468 -16.842041
						CHANNELS 3 Zrotation Yrotation Xrotation
						JOINT joint_8
						{
							OFFSET 54.421875 -30.424072 -248.864014
							CHANNELS 3 Zrotation Yrotation Xrotation
							JOINT joint_9
							{
								OFFSET 42.120117 -33.387878 -236.524963
								CHANNELS 3 Zrotation Yrotation Xrotation
								End Site
								{
									OFFSET 0.000000 0.000000 0.000000
								}
							}
						}
					}
				}
				JOINT joint_10
				{
					OFFSET 2.312012 26.904114 69.425049
					CHANNELS 3 Zrotation Yrotation Xrotation
					JOINT joint_11
					{
						OFFSET 0.971436 152.197815 -20.626953
						CHANNELS 3 Zrotation Yrotation Xrotation
						JOINT joint_12
						{
							OFFSET 49.954102 28.991455 -249.970093
							CHANNELS 3 Zrotation Yrotation Xrotation
							JOINT joint_13
							{
								OFFSET 48.146973 19.598389 -236.919922
								CHANNELS 3 Zrotation Yrotation Xrotation
								End Site
								{
									OFFSET 0.000000 0.000000 0.000000
								}
							}
						}
					}
				}
			}
		}
	}
	JOINT joint_14
	{
		OFFSET 16.305664 -89.442932 -108.224976
		CHANNELS 3 Zrotation Yrotation Xrotation
		JOINT joint_15
		{
			OFFSET -22.282471 13.437134 -412.904968
			CHANNELS 3 Zrotation Yrotation Xrotation
			JOINT joint_16
			{
				OFFSET -45.426025 14.484802 -445.892029
				CHANNELS 3 Zrotation Yrotation Xrotation
				JOINT joint_17
				{
					OFFSET 173.389404 -9.944031 -76.473001
					CHANNELS 3 Zrotation Yrotation Xrotation
					End Site
					{
						OFFSET 0.000000 0.000000 0.000000
					}
				}
			}
		}
	}
	JOINT joint_18
	{
		OFFSET 13.392822 89.408875 -108.653992
		CHANNELS 3 Zrotation Yrotation Xrotation
		JOINT joint_19
		{
			OFFSET -29.032959 24.483521 -411.977966
			CHANNELS 3 Zrotation Yrotation Xrotation
			JOINT joint_20
			{
				OFFSET -30.530029 28.986328 -446.453018
				CHANNELS 3 Zrotation Yrotation Xrotation
				JOINT joint_21
				{
					OFFSET 170.330078 33.400757 -76.698997
					CHANNELS 3 Zrotation Yrotation Xrotation
					End Site
					{
						OFFSET 0.000000 0.000000 0.000000
					}
				}
			}
		}
	}
}
MOTION
Frames: 10
Frame Time: 0.016667
-1706.113403 1109.345703 1061.500000 -55.773121 -0.678400 0.713795 2.583673 2.745518 0.489326 2.483342 -0.392979 -0.408356 2.459398 0.591998 -0.115201 3.301028 2.056964 -6.135806 0.000000 0.000000 0.000000 -2.712690 0.990585 -0.728503 1.546334 2.273301 -1.324554 1.244311 -2.016588 0.115960 0.000000 0.000000 0.000000 5.106205 2.157866 -1.209192 0.296025 1.565681 2.820459 -0.354524 -2.111696 0.372036 0.000000 0.000000 0.000000 -0.935715 -0.076761 -7.810927 -2.349134 -0.206422 0.338004 -2.293567 1.377647 -0.910695 0.000000 0.000000 0.000000 31.844902 -3.331212 0.933939 30.749584 -2.284631 7.337056 32.072004 11.562395 11.559931 0.000000 0.000000 0.000000 
-1706.070190 1109.510132 1061.508057 -55.790248 -0.683732 0.711467 2.587457 2.744664 0.484142 2.487781 -0.393035 -0.406975 2.463788 0.592076 -0.115716 3.305037 2.058809 -6.143729 0.000000 0.000000 0.000000 -2.691920 0.993214 -0.720050 1.544116 2.276039 -1.326075 1.240084 -2.011654 0.109542 0.000000 0.000000 0.000000 5.107958 2.151755 -1.192445 0.295768 1.561235 2.817980 -0.355687 -2.112071 0.367088 0.000000 0.000000 0.000000 -0.929043 -0.079407 -7.822207 -2.346489 -0.206933 0.350895 -2.289361 1.371742 -0.909145 0.000000 0.000000 0.000000 31.851656 -3.328977 0.929180 30.755630 -2.283788 7.341091 32.077929 11.558247 11.563467 0.000000 0.000000 0.000000 
-1706.018799 1109.665771 1061.515015 -55.803776 -0.691078 0.709228 2.590379 2.744121 0.479909 2.491422 -0.392070 -0.405531 2.467415 0.590425 -0.116443 3.308873 2.062251 -6.151184 0.000000 0.000000 0.000000 -2.673601 0.995567 -0.711024 1.539358 2.277976 -1.326084 1.231598 -1.998612 0.099313 0.000000 0.000000 0.000000 5.109492 2.146056 -1.174527 0.295858 1.557564 2.812247 -0.354632 -2.105052 0.364338 0.000000 0.000000 0.000000 -0.923743 -0.080188 -7.835874 -2.346349 -0.203491 0.368243 -2.286620 1.359937 -0.908569 0.000000 0.000000 0.000000 31.856867 -3.324986 0.926152 30.760611 -2.281735 7.344576 32.082540 11.553737 11.566434 0.000000 0.000000 0.000000 
-1705.970215 1109.807983 1061.520020 -55.810770 -0.697332 0.706312 2.591385 2.741352 0.474623 2.493240 -0.392240 -0.405151 2.469266 0.589248 -0.116681 3.310806 2.063751 -6.155754 0.000000 0.000000 0.000000 -2.656098 0.999627 -0.700754 1.535771 2.281994 -1.325164 1.223835 -1.986594 0.090857 0.000000 0.000000 0.000000 5.111726 2.141315 -1.157016 0.296424 1.554694 2.808154 -0.352846 -2.096548 0.363428 0.000000 0.000000 0.000000 -0.921289 -0.082955 -7.845758 -2.347149 -0.195157 0.380865 -2.285204 1.341945 -0.908897 0.000000 0.000000 0.000000 31.860042 -3.323571 0.923707 30.763551 -2.278626 7.348204 32.085033 11.549082 11.568534 0.000000 0.000000 0.000000 
-1705.933105 1109.930298 1061.522949 -55.807012 -0.701500 0.702462 2.588960 2.733885 0.464071 2.492442 -0.391520 -0.403039 2.468472 0.588792 -0.116937 3.308668 2.060400 -6.153974 0.000000 0.000000 0.000000 -2.642131 1.005232 -0.688678 1.534350 2.288166 -1.321797 1.217713 -1.977265 0.084516 0.000000 0.000000 0.000000 5.112825 2.137578 -1.140533 0.297640 1.552646 2.808645 -0.350926 -2.089311 0.364756 0.000000 0.000000 0.000000 -0.924002 -0.088885 -7.848038 -2.349431 -0.179958 0.383463 -2.286399 1.312746 -0.910949 0.000000 0.000000 0.000000 31.860005 -3.326968 0.921969 30.763192 -2.273916 7.351807 32.084106 11.544535 11.569242 0.000000 0.000000 0.000000 
-1705.897827 1110.039917 1061.524048 -55.797581 -0.704633 0.697941 2.585356 2.723183 0.453370 2.490452 -0.389228 -0.403237 2.466726 0.586761 -0.116133 3.304360 2.055599 -6.148782 0.000000 0.000000 0.000000 -2.630296 1.012753 -0.675730 1.533798 2.296325 -1.317580 1.212132 -1.968420 0.080482 0.000000 0.000000 0.000000 5.113170 2.134956 -1.124623 0.299269 1.551708 2.810772 -0.348388 -2.080724 0.367581 0.000000 0.000000 0.000000 -0.929353 -0.096866 -7.846882 -2.352465 -0.159888 0.381809 -2.288668 1.277484 -0.913792 0.000000 0.000000 0.000000 31.858271 -3.332280 0.920805 30.761139 -2.268907 7.354997 32.081416 11.539370 11.569358 0.000000 0.000000 0.000000 
-1705.852051 1110.149658 1061.522949 -55.791231 -0.709951 0.694517 2.583480 2.716132 0.442608 2.490215 -0.389863 -0.401781 2.466481 0.585830 -0.116372 3.301517 2.052520 -6.145859 0.000000 0.000000 0.000000 -2.618314 1.021522 -0.664546 1.533852 2.305548 -1.313736 1.207816 -1.961894 0.078951 0.000000 0.000000 0.000000 5.112165 2.132828 -1.110619 0.300963 1.551401 2.812103 -0.345242 -2.070457 0.371269 0.000000 0.000000 0.000000 -0.932833 -0.102998 -7.849667 -2.355355 -0.140256 0.383689 -2.290088 1.250236 -0.915843 0.000000 0.000000 0.000000 31.857047 -3.332217 0.919191 30.759871 -2.266981 7.357954 32.080041 11.535895 11.569677 0.000000 0.000000 0.000000 
-1705.783936 1110.267822 1061.519043 -55.794541 -0.718501 0.692695 2.584256 2.710778 0.433227 2.492821 -0.388249 -0.397116 2.468829 0.584678 -0.119405 3.302385 2.050173 -6.149449 0.000000 0.000000 0.000000 -2.599568 1.031871 -0.657007 1.534379 2.316581 -1.311711 1.205643 -1.958760 0.083588 0.000000 0.000000 0.000000 5.114636 2.130953 -1.100448 0.302696 1.550749 2.811486 -0.341027 -2.057699 0.377090 0.000000 0.000000 0.000000 -0.931358 -0.107527 -7.861979 -2.357131 -0.120892 0.396152 -2.288482 1.236938 -0.915852 0.000000 0.000000 0.000000 31.858125 -3.322017 0.916334 30.761283 -2.272188 7.359857 32.082340 11.534571 11.571133 0.000000 0.000000 0.000000 
-1705.705322 1110.384644 1061.512939 -55.801583 -0.728631 0.691947 2.587358 2.707119 0.423906 2.497807 -0.388033 -0.391481 2.473414 0.584337 -0.123043 3.304144 2.049111 -6.154402 0.000000 0.000000 0.000000 -2.582279 1.043470 -0.651090 1.535409 2.328513 -1.310162 1.204742 -1.957754 0.091203 0.000000 0.000000 0.000000 5.114780 2.129252 -1.091826 0.304622 1.550591 2.810011 -0.336098 -2.042275 0.383116 0.000000 0.000000 0.000000 -0.927777 -0.110971 -7.878096 -2.358383 -0.101857 0.412076 -2.285670 1.231846 -0.914904 0.000000 0.000000 0.000000 31.859879 -3.306732 0.912967 30.763627 -2.280582 7.361053 32.086056 11.534990 11.572846 0.000000 0.000000 0.000000 
-1705.632202 1110.486938 1061.506958 -55.804584 -0.738030 0.691230 2.589183 2.701950 0.415701 2.501380 -0.386531 -0.388396 2.476857 0.583561 -0.125529 3.305650 2.048131 -6.158881 0.000000 0.000000 0.000000 -2.564913 1.053954 -0.643547 1.535469 2.339082 -1.308904 1.202356 -1.954700 0.095127 0.000000 0.000000 0.000000 5.115804 2.127920 -1.081335 0.306438 1.550733 2.807399 -0.331232 -2.025877 0.387723 0.000000 0.000000 0.000000 -0.925573 -0.111111 -7.888920 -2.359387 -0.089311 0.419999 -2.284302 1.231929 -0.914277 0.000000 0.000000 0.000000 31.860643 -3.294101 0.909980 30.764812 -2.286686 7.363397 32.088495 11.535345 11.573941 0.000000 0.000000 0.000000 
